<svg xmlns="http://www.w3.org/2000/svg" viewBox="0 0 64 64">
  <circle cx="32" cy="32" r="30" fill="#0d0719"/>
  <g fill="#FFD23F">
    <ellipse cx="32" cy="8" rx="6" ry="10"/>
    <ellipse cx="32" cy="8" rx="6" ry="10" transform="rotate(30 32 32)"/>
    <ellipse cx="32" cy="8" rx="6" ry="10" transform="rotate(60 32 32)"/>
    <ellipse cx="32" cy="8" rx="6" ry="10" transform="rotate(90 32 32)"/>
    <ellipse cx="32" cy="8" rx="6" ry="10" transform="rotate(120 32 32)"/>
    <ellipse cx="32" cy="8" rx="6" ry="10" transform="rotate(150 32 32)"/>
    <ellipse cx="32" cy="8" rx="6" ry="10" transform="rotate(180 32 32)"/>
    <ellipse cx="32" cy="8" rx="6" ry="10" transform="rotate(210 32 32)"/>
    <ellipse cx="32" cy="8" rx="6" ry="10" transform="rotate(240 32 32)"/>
    <ellipse cx="32" cy="8" rx="6" ry="10" transform="rotate(270 32 32)"/>
    <ellipse cx="32" cy="8" rx="6" ry="10" transform="rotate(300 32 32)"/>
    <ellipse cx="32" cy="8" rx="6" ry="10" transform="rotate(330 32 32)"/>
  </g>
  <circle cx="32" cy="32" r="12" fill="#7a4410"/>
  <circle cx="32" cy="32" r="5" fill="#4a2706"/>
</svg>